<?xml version="1.0" encoding="UTF-8" standalone="no"?>
<!DOCTYPE svg PUBLIC "-//W3C//DTD SVG 1.1//EN" "http://www.w3.org/Graphics/SVG/1.1/DTD/svg11.dtd">
<svg version="1.1" xmlns="http://www.w3.org/2000/svg" xmlns:xlink="http://www.w3.org/1999/xlink" preserveAspectRatio="xMidYMid meet" viewBox="138.99999999999997 139 404 84" width="100" height="20"><defs><path d="M300 140L300 220C221.59 220 172.59 220 152.99 220C145.81 220 140 214.19 140 207.01C140 193.61 140 166.39 140 152.99C140 145.81 145.81 140 152.99 140C172.59 140 221.59 140 300 140Z" id="d2EEvgoZLS"></path><path d="M300 140L380 140L380 220L300 220L300 140Z" id="b1222Aukwj"></path><path d="M380 140L460 140L460 220L380 220L380 140Z" id="f6L96uVxQ"></path><path d="M460 140L460 220C495.74 220 518.08 220 527.01 220C534.19 220 540 214.19 540 207.01C540 193.61 540 166.39 540 152.99C540 145.81 534.19 140 527.01 140C518.08 140 495.74 140 460 140Z" id="cmbJ47XML"></path></defs><g><g><use xlink:href="#d2EEvgoZLS" opacity="1" fill="#e9ecef" fill-opacity="1"></use><g><use xlink:href="#d2EEvgoZLS" opacity="1" fill-opacity="0" stroke="#ced4da" stroke-width="1" stroke-opacity="1"></use></g></g><g><use xlink:href="#b1222Aukwj" opacity="1" fill="#f8f9fa" fill-opacity="1"></use><g><use xlink:href="#b1222Aukwj" opacity="1" fill-opacity="0" stroke="#ced4da" stroke-width="1" stroke-opacity="1"></use></g></g><g><use xlink:href="#f6L96uVxQ" opacity="1" fill="#28a745" fill-opacity="1"></use><g><use xlink:href="#f6L96uVxQ" opacity="1" fill-opacity="0" stroke="#28a745" stroke-width="1" stroke-opacity="1"></use></g></g><g><use xlink:href="#cmbJ47XML" opacity="1" fill="#f8f9fa" fill-opacity="1"></use><g><use xlink:href="#cmbJ47XML" opacity="1" fill-opacity="0" stroke="#ced4da" stroke-width="1" stroke-opacity="1"></use></g></g></g></svg>